<?xml version="1.0" encoding="UTF-8" standalone="no"?>
<!-- Created with Inkscape (http://www.inkscape.org/) -->

<svg
   width="260"
   height="300"
   viewBox="0 0 260 300"
   version="1.1"
   id="svg8"
   inkscape:version="1.1.2 (0a00cf5339, 2022-02-04)"
   sodipodi:docname="mux.svg"
   xmlns:inkscape="http://www.inkscape.org/namespaces/inkscape"
   xmlns:sodipodi="http://sodipodi.sourceforge.net/DTD/sodipodi-0.dtd"
   xmlns="http://www.w3.org/2000/svg"
   xmlns:svg="http://www.w3.org/2000/svg"
   xmlns:rdf="http://www.w3.org/1999/02/22-rdf-syntax-ns#"
   xmlns:cc="http://creativecommons.org/ns#"
   xmlns:dc="http://purl.org/dc/elements/1.1/">
  <defs
     id="defs97" />
  <sodipodi:namedview
     id="base"
     pagecolor="#ffffff"
     bordercolor="#666666"
     borderopacity="1.0"
     inkscape:pageopacity="0.0"
     inkscape:pageshadow="2"
     inkscape:zoom="2.3834725"
     inkscape:cx="175.37438"
     inkscape:cy="144.53702"
     inkscape:document-units="px"
     inkscape:current-layer="layer1"
     showgrid="true"
     inkscape:pagecheckerboard="0"
     width="260px"
     inkscape:window-width="1920"
     inkscape:window-height="1052"
     inkscape:window-x="0"
     inkscape:window-y="0"
     inkscape:window-maximized="1">
    <inkscape:grid
       type="xygrid"
       id="grid581" />
  </sodipodi:namedview>
  <metadata
     id="metadata5">
    <rdf:RDF>
      <cc:Work
         rdf:about="">
        <dc:format>image/svg+xml</dc:format>
        <dc:type
           rdf:resource="http://purl.org/dc/dcmitype/StillImage" />
      </cc:Work>
    </rdf:RDF>
  </metadata>
  <g
     inkscape:label="Layer 1"
     inkscape:groupmode="layer"
     id="layer1"
     transform="translate(0,-956)">
    <path
       style="fill:none;stroke:#000000;stroke-width:2;stroke-linecap:butt;stroke-linejoin:miter;stroke-opacity:1"
       d="m 200,1106 h 21.88889"
       id="path3059-2"
       sodipodi:nodetypes="cc"
       inkscape:connector-curvature="0" />
    <path
       id="path3061-7"
       style="fill:none;stroke:#000000;stroke-width:2;stroke-linecap:butt;stroke-linejoin:miter;stroke-opacity:1"
       d="M 155,1086 H 135 V 986 h -30"
       inkscape:connector-curvature="0"
       sodipodi:nodetypes="cccc" />
    <path
       id="path3061-7-0"
       style="fill:none;stroke:#000000;stroke-width:2;stroke-linecap:butt;stroke-linejoin:miter;stroke-opacity:1"
       d="M 159.88889,1099 H 120 v -33 h -15"
       inkscape:connector-curvature="0"
       sodipodi:nodetypes="cccc" />
    <path
       id="path3061-7-6"
       style="fill:none;stroke:#000000;stroke-width:2;stroke-linecap:butt;stroke-linejoin:miter;stroke-opacity:1"
       d="m 155,1126 h -21 l 1,100 h -30"
       inkscape:connector-curvature="0"
       sodipodi:nodetypes="cccc" />
    <path
       id="path3061-7-0-1"
       style="fill:none;stroke:#000000;stroke-width:2;stroke-linecap:butt;stroke-linejoin:miter;stroke-opacity:1"
       d="m 158,1114 h -38 v 32 h -15"
       inkscape:connector-curvature="0"
       sodipodi:nodetypes="cccc" />
    <path
       style="color:#000000;fill-rule:evenodd;-inkscape-stroke:none"
       d="m 148.51584,1075.9995 1.16797,2.0428 1.99805,3.4859 -0.006,-0.01 c 0,0 5.47851,9.6905 5.47851,24.4797 0,14.7891 -5.47851,24.4796 -5.47851,24.4796 L 148.51584,1136 h 5.66602 13.97851 c 2.38815,0 8.1471,0.02 14.42188,-3.6613 6.2782,-3.6834 13.05613,-11.0145 18.27734,-24.8556 l 0.084,-0.2202 v -2.5245 l -0.084,-0.222 c -5.22353,-13.8472 -12.05404,-21.052 -18.32422,-24.7338 -6.27017,-3.6819 -11.96457,-3.7831 -14.375,-3.7831 h -13.97851 z m 5.0293,2.7876 h 0.63672 13.97851 c 2.33863,0 7.13203,0.053 12.73438,3.3426 5.57313,3.2726 11.95686,9.832 17.00781,23.1136 v 1.5147 c -5.05177,13.2851 -11.41461,19.9789 -16.95898,23.2318 -5.57705,3.272 -10.36281,3.2226 -12.78321,3.2226 h -13.97851 -0.63672 l 0.83008,-1.4484 h 0.004 c 0,0 5.8164,-10.3338 5.8164,-25.7597 0,-15.426 -5.8164,-25.7598 -5.8164,-25.7598 l -0.004,-0.01 z"
       id="path42888" />
    <g
       id="g2560-7-7"
       inkscape:label="Layer 1"
       transform="translate(143.35764,901.5)" />
    <path
       style="fill:none;stroke:#000000;stroke-width:2;stroke-linecap:butt;stroke-linejoin:miter;stroke-opacity:1"
       d="M 51.760364,1226 H 35"
       id="path3061-6-3"
       inkscape:connector-curvature="0"
       sodipodi:nodetypes="cc" />
    <path
       style="fill:none;stroke:#000000;stroke-width:2;stroke-linecap:butt;stroke-linejoin:miter;stroke-opacity:1"
       d="M 62,1246 H 35"
       id="path3944-06-5"
       inkscape:connector-curvature="0" />
    <text
       xml:space="preserve"
       style="font-style:normal;font-variant:normal;font-weight:normal;font-stretch:normal;font-size:16px;line-height:1.2;font-family:sans-serif;-inkscape-font-specification:sans-serif;text-align:center;letter-spacing:0px;word-spacing:0px;text-anchor:middle;fill:#000000;fill-opacity:1;stroke:none"
       x="25"
       y="1231"
       id="text631-2"><tspan
         sodipodi:role="line"
         id="tspan629-9"
         x="25"
         y="1231">i0</tspan></text>
    <path
       style="fill:none;stroke:#000000;stroke-width:2;stroke-linecap:butt;stroke-linejoin:miter;stroke-opacity:1"
       d="M 51.760364,1206 H 35"
       id="path3061-6-3-2"
       inkscape:connector-curvature="0"
       sodipodi:nodetypes="cc" />
    <text
       xml:space="preserve"
       style="font-style:normal;font-variant:normal;font-weight:normal;font-stretch:normal;font-size:16px;line-height:1.2;font-family:sans-serif;-inkscape-font-specification:sans-serif;text-align:center;letter-spacing:0px;word-spacing:0px;text-anchor:middle;fill:#000000;fill-opacity:1;stroke:none"
       x="25"
       y="1211"
       id="text631-2-6"><tspan
         sodipodi:role="line"
         id="tspan629-9-1"
         x="25"
         y="1211">i1</tspan></text>
    <text
       xml:space="preserve"
       style="font-style:normal;font-variant:normal;font-weight:normal;font-stretch:normal;font-size:16px;line-height:1.2;font-family:sans-serif;-inkscape-font-specification:sans-serif;text-align:center;letter-spacing:0px;word-spacing:0px;text-anchor:middle;fill:#000000;fill-opacity:1;stroke:none"
       x="18.600018"
       y="1251"
       id="text643-9"><tspan
         sodipodi:role="line"
         id="tspan641-3"
         x="18.600018"
         y="1251">a[0]</tspan></text>
    <text
       xml:space="preserve"
       style="font-style:normal;font-variant:normal;font-weight:normal;font-stretch:normal;font-size:16px;line-height:1.2;font-family:sans-serif;-inkscape-font-specification:sans-serif;text-align:start;letter-spacing:0px;word-spacing:0px;text-anchor:start;fill:#000000;fill-opacity:1;stroke:none"
       x="226.88889"
       y="1111"
       id="text647"><tspan
         sodipodi:role="line"
         id="tspan645"
         x="226.88889"
         y="1111">a[i]</tspan></text>
    <path
       id="path29216"
       d="m 75,1256 c 16.56854,0 30,-13.4315 30,-30 0,-16.5685 -13.43146,-30 -30,-30 H 61.42857 60 v 1.4286 57.1428 1.4286 h 1.42857 z m -12.14286,-2.8571 v -54.2858 c 0,0 -2.84748,6e-4 12.14286,3e-4 14.99034,3e-4 27.14235,12.1523 27.14258,27.1426 -2.3e-4,14.9903 -12.15224,27.1423 -27.14258,27.1426 -14.99034,-3e-4 -12.14286,3e-4 -12.14286,3e-4 z"
       sodipodi:nodetypes="cscccccccccccccc" />
    <path
       style="fill:none;stroke:#000000;stroke-width:2;stroke-linecap:butt;stroke-linejoin:miter;stroke-opacity:1"
       d="M 61,1146 H 35"
       id="path3061-6-3-8"
       inkscape:connector-curvature="0" />
    <path
       style="fill:none;stroke:#000000;stroke-width:2;stroke-linecap:butt;stroke-linejoin:miter;stroke-opacity:1"
       d="M 62,1166 H 35"
       id="path3944-06-5-7"
       inkscape:connector-curvature="0" />
    <text
       xml:space="preserve"
       style="font-style:normal;font-variant:normal;font-weight:normal;font-stretch:normal;font-size:16px;line-height:1.2;font-family:sans-serif;-inkscape-font-specification:sans-serif;text-align:center;letter-spacing:0px;word-spacing:0px;text-anchor:middle;fill:#000000;fill-opacity:1;stroke:none"
       x="25"
       y="1151"
       id="text631-2-9"><tspan
         sodipodi:role="line"
         id="tspan629-9-2"
         x="25"
         y="1151">i0</tspan></text>
    <text
       xml:space="preserve"
       style="font-style:normal;font-variant:normal;font-weight:normal;font-stretch:normal;font-size:16px;line-height:1.2;font-family:sans-serif;-inkscape-font-specification:sans-serif;text-align:center;letter-spacing:0px;word-spacing:0px;text-anchor:middle;fill:#000000;fill-opacity:1;stroke:none"
       x="25"
       y="1131"
       id="text631-2-6-2"><tspan
         sodipodi:role="line"
         id="tspan629-9-1-3"
         x="25"
         y="1131">i1</tspan></text>
    <text
       xml:space="preserve"
       style="font-style:normal;font-variant:normal;font-weight:normal;font-stretch:normal;font-size:16px;line-height:1.2;font-family:sans-serif;-inkscape-font-specification:sans-serif;text-align:center;letter-spacing:0px;word-spacing:0px;text-anchor:middle;fill:#000000;fill-opacity:1;stroke:none"
       x="18.600018"
       y="1171"
       id="text643-9-7"><tspan
         sodipodi:role="line"
         id="tspan641-3-5"
         x="18.600018"
         y="1171">a[1]</tspan></text>
    <path
       id="path29216-9"
       d="m 75,1176 c 16.56854,0 30,-13.4315 30,-30 0,-16.5685 -13.43146,-30 -30,-30 H 61.42857 60 v 1.4286 57.1428 1.4286 h 1.42857 z m -12.14286,-2.8571 v -54.2858 c 0,0 -2.84748,6e-4 12.14286,3e-4 14.99034,3e-4 27.14235,12.1523 27.14258,27.1426 -2.3e-4,14.9903 -12.15224,27.1423 -27.14258,27.1426 -14.99034,-3e-4 -12.14286,3e-4 -12.14286,3e-4 z"
       sodipodi:nodetypes="cscccccccccccccc" />
    <path
       style="fill:none;stroke:#000000;stroke-width:2;stroke-linecap:butt;stroke-linejoin:miter;stroke-opacity:1"
       d="M 62,1086 H 35"
       id="path3944-06-5-7-2"
       inkscape:connector-curvature="0" />
    <text
       xml:space="preserve"
       style="font-style:normal;font-variant:normal;font-weight:normal;font-stretch:normal;font-size:16px;line-height:1.2;font-family:sans-serif;-inkscape-font-specification:sans-serif;text-align:center;letter-spacing:0px;word-spacing:0px;text-anchor:middle;fill:#000000;fill-opacity:1;stroke:none"
       x="25"
       y="1071"
       id="text631-2-9-8"><tspan
         sodipodi:role="line"
         id="tspan629-9-2-9"
         x="25"
         y="1071">i0</tspan></text>
    <path
       style="fill:none;stroke:#000000;stroke-width:2;stroke-linecap:butt;stroke-linejoin:miter;stroke-opacity:1"
       d="M 61,1046 H 35"
       id="path3061-6-3-2-0-7"
       inkscape:connector-curvature="0" />
    <text
       xml:space="preserve"
       style="font-style:normal;font-variant:normal;font-weight:normal;font-stretch:normal;font-size:16px;line-height:1.2;font-family:sans-serif;-inkscape-font-specification:sans-serif;text-align:center;letter-spacing:0px;word-spacing:0px;text-anchor:middle;fill:#000000;fill-opacity:1;stroke:none"
       x="25"
       y="1051"
       id="text631-2-6-2-3"><tspan
         sodipodi:role="line"
         id="tspan629-9-1-3-6"
         x="25"
         y="1051">i1</tspan></text>
    <text
       xml:space="preserve"
       style="font-style:normal;font-variant:normal;font-weight:normal;font-stretch:normal;font-size:16px;line-height:1.2;font-family:sans-serif;-inkscape-font-specification:sans-serif;text-align:center;letter-spacing:0px;word-spacing:0px;text-anchor:middle;fill:#000000;fill-opacity:1;stroke:none"
       x="18.600018"
       y="1091"
       id="text643-9-7-1"><tspan
         sodipodi:role="line"
         id="tspan641-3-5-2"
         x="18.600018"
         y="1091">a[2]</tspan></text>
    <path
       id="path29216-9-9"
       d="m 75,1096 c 16.56854,0 30,-13.4315 30,-30 0,-16.5685 -13.43146,-30 -30,-30 H 61.42857 60 v 1.4286 57.1428 1.4286 h 1.42857 z m -12.14286,-2.8571 v -54.2858 c 0,0 -2.84748,6e-4 12.14286,3e-4 14.99034,3e-4 27.14235,12.1523 27.14258,27.1426 -2.3e-4,14.9903 -12.15224,27.1423 -27.14258,27.1426 -14.99034,-3e-4 -12.14286,3e-4 -12.14286,3e-4 z"
       sodipodi:nodetypes="cscccccccccccccc" />
    <path
       style="fill:none;stroke:#000000;stroke-width:2;stroke-linecap:butt;stroke-linejoin:miter;stroke-opacity:1"
       d="M 61,986 H 35"
       id="path3061-6-3-8-2-3"
       inkscape:connector-curvature="0" />
    <path
       style="fill:none;stroke:#000000;stroke-width:2;stroke-linecap:butt;stroke-linejoin:miter;stroke-opacity:1"
       d="M 62,1006 H 35"
       id="path3944-06-5-7-2-1"
       inkscape:connector-curvature="0" />
    <text
       xml:space="preserve"
       style="font-style:normal;font-variant:normal;font-weight:normal;font-stretch:normal;font-size:16px;line-height:1.2;font-family:sans-serif;-inkscape-font-specification:sans-serif;text-align:center;letter-spacing:0px;word-spacing:0px;text-anchor:middle;fill:#000000;fill-opacity:1;stroke:none"
       x="25"
       y="991"
       id="text631-2-9-8-9"><tspan
         sodipodi:role="line"
         id="tspan629-9-2-9-4"
         x="25"
         y="991">i0</tspan></text>
    <path
       style="fill:none;stroke:#000000;stroke-width:2;stroke-linecap:butt;stroke-linejoin:miter;stroke-opacity:1"
       d="M 61,966 H 35"
       id="path3061-6-3-2-0-7-7"
       inkscape:connector-curvature="0" />
    <text
       xml:space="preserve"
       style="font-style:normal;font-variant:normal;font-weight:normal;font-stretch:normal;font-size:16px;line-height:1.2;font-family:sans-serif;-inkscape-font-specification:sans-serif;text-align:center;letter-spacing:0px;word-spacing:0px;text-anchor:middle;fill:#000000;fill-opacity:1;stroke:none"
       x="25"
       y="971"
       id="text631-2-6-2-3-8"><tspan
         sodipodi:role="line"
         id="tspan629-9-1-3-6-4"
         x="25"
         y="971">i1</tspan></text>
    <text
       xml:space="preserve"
       style="font-style:normal;font-variant:normal;font-weight:normal;font-stretch:normal;font-size:16px;line-height:1.2;font-family:sans-serif;-inkscape-font-specification:sans-serif;text-align:center;letter-spacing:0px;word-spacing:0px;text-anchor:middle;fill:#000000;fill-opacity:1;stroke:none"
       x="18.600018"
       y="1011"
       id="text643-9-7-1-5"><tspan
         sodipodi:role="line"
         id="tspan641-3-5-2-0"
         x="18.600018"
         y="1011">a[3]</tspan></text>
    <path
       id="path29216-9-9-3"
       d="m 75,1016 c 16.56854,0 30,-13.4315 30,-30 0,-16.56854 -13.43146,-30 -30,-30 H 61.42857 60 v 1.4286 57.1428 1.4286 h 1.42857 z m -12.14286,-2.8571 v -54.2858 c 0,0 -2.84748,5.5e-4 12.14286,3.2e-4 14.99034,2.3e-4 27.14235,12.15224 27.14258,27.14258 -2.3e-4,14.9903 -12.15224,27.1423 -27.14258,27.1426 -14.99034,-3e-4 -12.14286,3e-4 -12.14286,3e-4 z"
       sodipodi:nodetypes="cscccccccccccccc" />
    <circle
       style="display:inline;overflow:visible;visibility:visible;fill:none;fill-opacity:1;stroke:#000000;stroke-width:2;stroke-linejoin:miter;stroke-opacity:1;marker:none;enable-background:accumulate"
       id="path4008-5-6"
       cx="56"
       cy="1206"
       r="4" />
    <path
       style="fill:none;stroke:#000000;stroke-width:2;stroke-linecap:butt;stroke-linejoin:miter;stroke-opacity:1"
       d="M 51.760364,1126 H 35"
       id="path3061-6-3-2-0"
       inkscape:connector-curvature="0"
       sodipodi:nodetypes="cc" />
    <circle
       style="display:inline;overflow:visible;visibility:visible;fill:none;fill-opacity:1;stroke:#000000;stroke-width:2;stroke-linejoin:miter;stroke-opacity:1;marker:none;enable-background:accumulate"
       id="path4008-5-6-6"
       cx="56"
       cy="1126"
       r="4" />
    <circle
       style="display:inline;overflow:visible;visibility:visible;fill:none;fill-opacity:1;stroke:#000000;stroke-width:2;stroke-linejoin:miter;stroke-opacity:1;marker:none;enable-background:accumulate"
       id="path4008-5-6-1"
       cx="56"
       cy="1226"
       r="4" />
    <path
       style="fill:none;stroke:#000000;stroke-width:2;stroke-linecap:butt;stroke-linejoin:miter;stroke-opacity:1"
       d="M 51.760364,1066 H 35"
       id="path3061-6-3-3"
       inkscape:connector-curvature="0"
       sodipodi:nodetypes="cc" />
    <circle
       style="display:inline;overflow:visible;visibility:visible;fill:none;fill-opacity:1;stroke:#000000;stroke-width:2;stroke-linejoin:miter;stroke-opacity:1;marker:none;enable-background:accumulate"
       id="path4008-5-6-1-2"
       cx="56"
       cy="1066"
       r="4" />
  </g>
</svg>
